# xmcd
#
# Track frame offsets:
# 150
# 12223
# 24656
# 36216
# 56436
# 72990
# 87248
# 99045
# 114262
# 125466
# 136474
# 146029
#
# Disc length: 2203 seconds
#
#
# Revision: 0
# Processed by: cddbd v1.5.1PL0 Copyright (c) Steve Scherf et al.
# Submitted via: FreeRIP 2.931 
#
DISCID=9b08990c
DTITLE=Paper Hearts - Country on my mind
DYEAR=1900
DGENRE=Country
TTITLE0=The key in the mailbox
TTITLE1=That's the day
TTITLE2=You're still on my mind
TTITLE3=Just call Lonesome 77203 draai dan 797204
TTITLE4=Baby Blue
TTITLE5=That's what i like about Texas
TTITLE6=If i had left it to up to yiu
TTITLE7=A thousand wonders
TTITLE8=Take your memory with you
TTITLE9=Honkiest Tonkiest beer joint
TTITLE10=In your arms
TTITLE11=Dance the night away
EXTD=
EXTT0=
EXTT1=
EXTT2=
EXTT3=
EXTT4=
EXTT5=
EXTT6=
EXTT7=
EXTT8=
EXTT9=
EXTT10=
EXTT11=
PLAYORDER=
